# xmcd
#
# Track frame offsets:
#	150
#	38397
#	72688
#	113590
#	126462
#	156549
#	190151
#	211275
#	252557
#
# Disc length: 3778 seconds
#
# Revision: 2
# Processed by: cddbd v1.5.2PL0 Copyright (c) Steve Scherf et al.
# Submitted via: audiograbber 1.83.01
#
DISCID=860ec009
DTITLE=Grateful Dead - 92-12-13 Oakland Coliseum Arena, Oakland CA
DYEAR=1900
DGENRE=
TTITLE0=Mississippi Half-Step
TTITLE1=It's All Over Now
TTITLE2=West LA Fadeaway
TTITLE3=Me and My Uncle
TTITLE4=Maggie's Farm
TTITLE5=Tennessee Jed
TTITLE6=Promised Land
TTITLE7=Here Comes Sunshine
TTITLE8=Long Way To Go Home
EXTD=
EXTT0=
EXTT1=
EXTT2=
EXTT3=
EXTT4=
EXTT5=
EXTT6=
EXTT7=
EXTT8=
PLAYORDER=
